# xmcd
#
# Track frame offsets:
#	150
#	15525
#	32316
#	47116
#	61865
#	74785
#
# Disc length: 1137 seconds
#
# Revision: 1
# Processed by: cddbd v1.4PL0 Copyright (c) Steve Scherf et al.
# Submitted via: MusicManager 7.0.0.0 
#
DISCID=49046f06
DTITLE=Beach Boys - Stars and Stripes Vol. 1 Sampler
DYEAR=1900
DGENRE=Country
TTITLE0=Don't Worry Baby (Lorrie Morgan)
TTITLE1=Little Deuce Coupe (James House)
TTITLE2=409 (Junior Brown)
TTITLE3=Long Tall Texan (Doug Supernaw)
TTITLE4=I Get Around (Sawyer Brown)
TTITLE5=Be True To Your School (Toby Keith)
EXTD=ID3G: 2
EXTT0=
EXTT1=
EXTT2=
EXTT3=
EXTT4=
EXTT5=
PLAYORDER=
